<svg fill="#E600A8" xmlns="http://www.w3.org/2000/svg" xmlns:xlink="http://www.w3.org/1999/xlink" version="1.1" x="0px" y="0px" viewBox="0 0 62.5 100" style="enable-background:new 0 0 62.5 100;" xml:space="preserve"><path style="" d="M31.238,12.5c5.017,0,9.729,1.953,13.269,5.499C48.047,21.533,50,26.245,50,31.25  s-1.953,9.717-5.408,13.165c-0.524,0.519-6.994,6.952-13.354,17.005c-6.312-10.034-12.757-16.443-13.245-16.919  c-3.54-3.534-5.493-8.246-5.493-13.251s1.953-9.717,5.493-13.257S26.142,12.5,31.238,12.5 M31.238,0  C23.254,0,15.259,3.052,9.155,9.155c-12.207,12.201-12.207,31.988,0,44.189c0,0,22.083,21.655,22.083,46.655  c0-25,22.106-46.655,22.106-46.655c12.207-12.201,12.207-31.988,0-44.189C47.241,3.052,39.246,0,31.238,0L31.238,0z" fill="#E600A8"></path><path style="" d="M37.5,31.25c0,3.455-2.795,6.25-6.262,6.25C27.691,37.5,25,34.705,25,31.25S27.691,25,31.238,25  C34.705,25,37.5,27.795,37.5,31.25z" fill="#E600A8"></path></svg>